<svg width="1263" height="1693" viewBox="0 0 1263 1693" fill="none" xmlns="http://www.w3.org/2000/svg">
<path fill-rule="evenodd" clip-rule="evenodd" d="M413.725 1662.13C413.725 1662.13 219.599 1603.71 94.0403 1400.39C-12.0345 1228.63 -60.1765 941.018 123.491 698.771C486.405 220.109 509.264 0 509.264 0C509.264 0 1181.82 559.587 813.748 1055.99C567.473 1388.14 731.984 1692.54 731.984 1692.54C731.984 1692.54 338.197 1317.26 505.877 1031.29C668.525 753.906 544.89 588.089 544.89 588.089C544.89 588.089 336.982 781.427 261.245 1031.29C185.508 1281.16 413.725 1662.13 413.725 1662.13Z" fill="#0C3555"/>
<path d="M1214.16 1330.62C1363.33 942.312 1121.42 673.157 1121.42 673.157C1121.42 673.157 1117.78 966.532 874.279 1181.56C735.025 1304.53 692.416 1453.44 799.186 1542.81C934.163 1655.79 1148.58 1501.32 1214.16 1330.62Z" fill="#265780"/>
</svg>
