<svg width="5258" height="1693" viewBox="0 0 5258 1693" fill="none" xmlns="http://www.w3.org/2000/svg">
<path d="M1633.66 388.16H1724.34V663.291H1756.99L2005.46 388.16H2119.71L1837.7 701.428L2123.34 1023.78H2004.55L1756.08 739.565H1724.34V1023.78H1633.66V388.16Z" fill="white"/>
<path d="M2163.11 569.765H2241.1L2246.54 630.602C2259.23 614.863 2273.74 601.848 2290.07 591.557C2306.99 580.661 2325.13 573.094 2344.47 568.857C2364.42 564.619 2384.98 564.922 2406.14 569.765V650.579C2386.19 645.736 2366.84 645.131 2348.1 648.763C2329.36 652.395 2312.43 660.264 2297.32 672.371C2282.81 683.873 2271.02 699.309 2261.95 718.68C2252.89 738.052 2248.35 761.357 2248.35 788.598V1023.78H2163.11V569.765Z" fill="white"/>
<path d="M2653.04 1030.13C2609.52 1030.13 2570.83 1020.14 2536.97 1000.17C2503.72 979.585 2477.43 951.437 2458.08 915.721C2439.34 880.006 2429.97 839.145 2429.97 793.138C2429.97 748.948 2439.34 709.6 2458.08 675.095C2476.82 640.591 2502.51 613.35 2535.16 593.373C2568.41 573.397 2605.89 563.409 2647.6 563.409C2689.92 563.409 2727.4 572.792 2760.05 591.557C2792.69 609.718 2818.08 635.445 2836.22 668.739C2854.35 701.428 2863.12 739.262 2862.52 782.242C2862.52 789.506 2862.21 797.073 2861.61 804.943C2861 812.207 2860.1 820.379 2858.89 829.459H2523.37C2525.18 853.673 2531.83 875.163 2543.32 893.929C2555.41 912.089 2570.52 926.315 2588.66 936.606C2607.4 946.897 2628.56 952.042 2652.14 952.042C2682.36 952.042 2708.66 946.291 2731.03 934.79C2753.4 922.683 2769.11 906.641 2778.18 886.664L2852.54 912.997C2834.4 949.923 2807.81 978.677 2772.74 999.259C2738.28 1019.84 2698.38 1030.13 2653.04 1030.13ZM2769.11 755.909C2769.11 734.117 2763.67 714.443 2752.79 696.888C2741.91 679.333 2727.1 665.712 2708.36 656.027C2690.22 645.736 2669.67 640.591 2646.7 640.591C2626.14 640.591 2607.1 645.736 2589.57 656.027C2572.64 665.712 2558.13 679.333 2546.04 696.888C2534.55 713.838 2527.3 733.511 2524.28 755.909H2769.11Z" fill="white"/>
<path d="M3207.54 1023.78L3200.28 957.49C3186.38 980.493 3168.24 998.351 3145.87 1011.06C3124.11 1023.17 3095.7 1029.22 3060.63 1029.22C3027.99 1029.22 3000.18 1024.08 2977.21 1013.79C2954.23 1002.89 2936.4 988.06 2923.7 969.294C2911.61 949.923 2905.57 927.525 2905.57 902.101C2905.57 863.964 2919.77 832.486 2948.19 807.667C2976.6 782.242 3017.71 766.503 3071.51 760.449L3200.28 745.921V710.508C3200.28 691.137 3192.42 674.793 3176.7 661.475C3160.99 647.552 3138.32 640.591 3108.69 640.591C3080.88 640.591 3057.31 647.249 3037.96 660.567C3018.62 673.279 3005.62 692.348 2998.97 717.772L2922.8 690.532C2934.28 650.579 2956.65 619.403 2989.9 597.005C3023.76 574.608 3064.56 563.409 3112.32 563.409C3169.15 563.409 3212.37 577.634 3241.99 606.086C3271.62 634.537 3286.43 672.069 3286.43 718.68V1023.78H3207.54ZM3200.28 815.839L3076.05 831.275C3049.45 834.907 3029.5 842.474 3016.2 853.976C3002.9 864.872 2996.25 879.4 2996.25 897.561C2996.25 914.511 3002.6 928.736 3015.29 940.238C3028.59 951.134 3047.03 956.582 3070.61 956.582C3099.62 956.582 3123.81 951.134 3143.15 940.238C3162.5 929.342 3176.7 914.208 3185.77 894.837C3195.44 874.86 3200.28 851.857 3200.28 825.827V815.839Z" fill="white"/>
<path d="M3423.67 880.308C3427.9 898.469 3435.15 912.694 3445.43 922.985C3455.71 933.276 3467.8 940.843 3481.7 945.686C3496.21 949.923 3511.33 952.042 3527.04 952.042C3554.25 952.042 3575.41 946.594 3590.52 935.698C3605.63 924.801 3613.19 911.181 3613.19 894.837C3613.19 880.914 3608.35 870.017 3598.68 862.148C3589.61 853.673 3577.22 847.014 3561.5 842.171C3546.39 837.329 3530.07 832.789 3512.53 828.551C3496.82 824.314 3479.59 819.471 3460.85 814.023C3442.71 808.575 3425.48 801.31 3409.16 792.23C3393.44 782.545 3380.44 770.438 3370.17 755.909C3359.89 740.776 3354.75 721.707 3354.75 698.704C3354.75 671.463 3362 647.855 3376.51 627.878C3391.63 607.296 3412.18 591.557 3438.18 580.661C3464.78 569.159 3494.7 563.409 3527.95 563.409C3566.64 563.409 3600.49 571.884 3629.51 588.833C3659.13 605.178 3680.6 629.997 3693.9 663.291L3616.82 688.716C3612.59 677.214 3605.63 667.831 3595.96 660.567C3586.29 653.303 3575.1 648.46 3562.41 646.039C3550.32 643.012 3538.23 641.499 3526.14 641.499C3503.16 641.499 3484.12 646.039 3469.01 655.119C3453.89 664.199 3446.34 677.517 3446.34 695.072C3446.34 704.757 3448.76 712.93 3453.59 719.588C3458.43 725.642 3465.08 730.787 3473.54 735.025C3482.61 738.657 3493.19 741.986 3505.28 745.013C3517.37 748.04 3530.37 751.369 3544.27 755.001C3562.41 760.449 3580.85 766.503 3599.59 773.162C3618.33 779.215 3635.56 787.085 3651.28 796.77C3666.99 806.456 3679.69 819.168 3689.36 834.907C3699.03 850.646 3704.17 870.017 3704.78 893.021C3704.78 919.656 3697.22 943.265 3682.11 963.846C3667.6 984.428 3646.74 1000.77 3619.54 1012.88C3592.94 1024.38 3561.2 1030.13 3524.32 1030.13C3479.59 1030.13 3441.5 1020.14 3410.06 1000.17C3378.63 980.191 3357.47 949.318 3346.59 907.549L3423.67 880.308Z" fill="white"/>
<path d="M3785.91 569.765H3872.05V1023.78H3785.91V569.765ZM3829.44 489.859C3813.11 489.859 3799.51 484.411 3788.63 473.515C3777.75 462.618 3772.31 449.301 3772.31 433.562C3772.31 417.217 3777.75 403.597 3788.63 392.701C3799.51 381.199 3813.11 375.448 3829.44 375.448C3845.15 375.448 3858.45 381.199 3869.33 392.701C3880.82 403.597 3886.56 417.217 3886.56 433.562C3886.56 449.301 3880.82 462.618 3869.33 473.515C3858.45 484.411 3845.15 489.859 3829.44 489.859Z" fill="white"/>
<path d="M3978.68 370H4064.82V759.541H4102L4271.57 569.765H4387.65L4177.27 796.77L4388.55 1023.78H4271.57L4102 833.091H4064.82V1023.78H3978.68V370Z" fill="white"/>
<path d="M4706.92 1023.78L4699.67 957.49C4685.76 980.493 4667.63 998.351 4645.26 1011.06C4623.49 1023.17 4595.08 1029.22 4560.02 1029.22C4527.37 1029.22 4499.56 1024.08 4476.59 1013.79C4453.62 1002.89 4435.78 988.06 4423.09 969.294C4411 949.923 4404.95 927.525 4404.95 902.101C4404.95 863.964 4419.16 832.486 4447.57 807.667C4475.99 782.242 4517.1 766.503 4570.9 760.449L4699.67 745.921V710.508C4699.67 691.137 4691.81 674.793 4676.09 661.475C4660.37 647.552 4637.7 640.591 4608.08 640.591C4580.27 640.591 4556.69 647.249 4537.35 660.567C4518 673.279 4505 692.348 4498.35 717.772L4422.18 690.532C4433.67 650.579 4456.04 619.403 4489.29 597.005C4523.14 574.608 4563.95 563.409 4611.71 563.409C4668.53 563.409 4711.76 577.634 4741.38 606.086C4771 634.537 4785.81 672.069 4785.81 718.68V1023.78H4706.92ZM4699.67 815.839L4575.43 831.275C4548.83 834.907 4528.88 842.474 4515.58 853.976C4502.28 864.872 4495.63 879.4 4495.63 897.561C4495.63 914.511 4501.98 928.736 4514.68 940.238C4527.98 951.134 4546.42 956.582 4569.99 956.582C4599.01 956.582 4623.19 951.134 4642.54 940.238C4661.88 929.342 4676.09 914.208 4685.16 894.837C4694.83 874.86 4699.67 851.857 4699.67 825.827V815.839Z" fill="white"/>
<path d="M4872.27 569.765H4950.26L4955.7 622.43C4970.21 603.664 4988.64 589.136 5011.01 578.845C5033.38 568.554 5058.17 563.409 5085.37 563.409C5120.43 563.409 5150.66 570.976 5176.05 586.109C5202.05 600.638 5222 622.43 5235.9 651.487C5250.41 680.544 5257.66 716.864 5257.66 760.449V1023.78H5172.42V771.346C5172.42 728.971 5163.36 696.888 5145.22 675.095C5127.69 652.697 5102 641.499 5068.14 641.499C5033.08 641.499 5005.87 653 4986.53 676.003C4967.18 698.401 4957.51 731.695 4957.51 775.886V1355H4872.27V569.765Z" fill="white"/>
<path d="M1730.02 1220.89H1651.28V1270.45H1710.49V1284.96H1651.28V1337.01H1730.02V1351.53H1634.66V1206.37H1730.02V1220.89Z" fill="white"/>
<path d="M1748.58 1286.83H1830.43V1300.93H1748.58V1286.83Z" fill="white"/>
<path d="M1931.49 1268.79L1929.83 1269V1202.23H1945.41V1351.53H1931.08L1930.04 1332.24C1926.85 1338.05 1922.08 1342.96 1915.71 1346.97C1909.47 1350.97 1901.72 1352.98 1892.44 1352.98C1882.88 1352.98 1874.5 1350.84 1867.3 1346.55C1860.24 1342.13 1854.7 1335.91 1850.68 1327.89C1846.81 1319.87 1844.87 1310.47 1844.87 1299.69C1844.87 1288.9 1846.81 1279.57 1850.68 1271.69C1854.7 1263.67 1860.24 1257.45 1867.3 1253.03C1874.5 1248.61 1882.88 1246.39 1892.44 1246.39C1902.27 1246.39 1910.44 1248.54 1916.95 1252.82C1923.46 1257.11 1928.31 1262.43 1931.49 1268.79ZM1861.69 1299.69C1861.69 1311.58 1864.74 1321.04 1870.83 1328.1C1876.93 1335.01 1885.24 1338.46 1895.76 1338.46C1902.27 1338.46 1908.09 1336.94 1913.21 1333.9C1918.34 1330.86 1922.35 1326.44 1925.26 1320.63C1928.31 1314.82 1929.83 1307.84 1929.83 1299.69C1929.83 1291.53 1928.31 1284.62 1925.26 1278.95C1922.35 1273.14 1918.34 1268.72 1913.21 1265.68C1908.09 1262.5 1902.27 1260.91 1895.76 1260.91C1885.38 1260.91 1877.07 1264.43 1870.83 1271.48C1864.74 1278.4 1861.69 1287.8 1861.69 1299.69Z" fill="white"/>
<path d="M1972.09 1247.85H1987.47V1351.53H1972.09V1247.85ZM1979.99 1227.11C1976.8 1227.11 1974.17 1226.07 1972.09 1224C1970.02 1221.92 1968.98 1219.37 1968.98 1216.33C1968.98 1213.15 1970.02 1210.52 1972.09 1208.45C1974.17 1206.37 1976.8 1205.34 1979.99 1205.34C1982.9 1205.34 1985.39 1206.37 1987.47 1208.45C1989.68 1210.52 1990.79 1213.15 1990.79 1216.33C1990.79 1219.37 1989.68 1221.92 1987.47 1224C1985.39 1226.07 1982.9 1227.11 1979.99 1227.11Z" fill="white"/>
<path d="M2014.23 1247.85H2028.56L2029.39 1262.98C2032.16 1259.25 2035.49 1256.07 2039.36 1253.44C2043.38 1250.82 2047.74 1249.02 2052.45 1248.05C2057.3 1246.95 2062.42 1246.88 2067.82 1247.85V1263.4C2062.01 1262.29 2056.74 1262.29 2052.04 1263.4C2047.46 1264.5 2043.52 1266.58 2040.19 1269.62C2036.87 1272.66 2034.31 1276.53 2032.51 1281.23C2030.71 1285.79 2029.81 1291.12 2029.81 1297.2V1351.53H2014.23V1247.85Z" fill="white"/>
<path d="M2124.4 1352.98C2114.71 1352.98 2106.05 1350.63 2098.43 1345.93C2090.96 1341.23 2085.07 1334.8 2080.78 1326.64C2076.48 1318.49 2074.34 1309.16 2074.34 1298.65C2074.34 1288.56 2076.48 1279.57 2080.78 1271.69C2085.07 1263.81 2090.96 1257.66 2098.43 1253.24C2105.91 1248.67 2114.43 1246.39 2123.99 1246.39C2133.4 1246.39 2141.78 1248.47 2149.12 1252.61C2156.6 1256.76 2162.42 1262.5 2166.57 1269.83C2170.73 1277.15 2172.67 1285.52 2172.39 1294.92C2172.39 1296.44 2172.32 1298.03 2172.18 1299.69C2172.04 1301.35 2171.9 1303.14 2171.77 1305.08H2091.37C2091.65 1311.58 2093.24 1317.31 2096.15 1322.29C2099.06 1327.27 2102.87 1331.21 2107.57 1334.11C2112.42 1336.87 2117.89 1338.26 2123.99 1338.26C2132.02 1338.26 2138.8 1336.74 2144.34 1333.69C2150.02 1330.65 2154.11 1326.3 2156.6 1320.63L2170.1 1326.02C2165.95 1334.73 2159.92 1341.44 2152.03 1346.14C2144.14 1350.7 2134.93 1352.98 2124.4 1352.98ZM2155.35 1291.6C2155.49 1285.65 2154.18 1280.4 2151.41 1275.84C2148.78 1271.28 2145.04 1267.68 2140.19 1265.06C2135.34 1262.43 2129.73 1261.12 2123.36 1261.12C2117.82 1261.12 2112.77 1262.43 2108.2 1265.06C2103.63 1267.68 2099.82 1271.35 2096.77 1276.05C2093.86 1280.61 2092.13 1285.79 2091.58 1291.6H2155.35Z" fill="white"/>
<path d="M2233.97 1352.98C2223.86 1352.98 2215 1350.77 2207.38 1346.34C2199.77 1341.92 2193.81 1335.77 2189.52 1327.89C2185.36 1319.87 2183.29 1310.61 2183.29 1300.1C2183.29 1289.46 2185.36 1280.13 2189.52 1272.11C2193.81 1263.95 2199.77 1257.66 2207.38 1253.24C2215 1248.67 2223.86 1246.39 2233.97 1246.39C2244.64 1246.39 2253.99 1248.88 2262.02 1253.86C2270.05 1258.7 2275.87 1265.47 2279.47 1274.18L2265.13 1279.16C2263.06 1273.63 2259.25 1269.27 2253.71 1266.09C2248.31 1262.78 2242.01 1261.12 2234.8 1261.12C2227.74 1261.12 2221.58 1262.71 2216.32 1265.89C2211.19 1269.07 2207.18 1273.56 2204.27 1279.36C2201.5 1285.17 2200.11 1292.01 2200.11 1299.89C2200.11 1311.51 2203.23 1320.84 2209.46 1327.89C2215.69 1334.8 2224 1338.26 2234.39 1338.26C2241.45 1338.26 2247.75 1336.67 2253.29 1333.49C2258.83 1330.31 2262.92 1326.02 2265.55 1320.63L2279.68 1325.61C2275.94 1334.18 2270.05 1340.88 2262.02 1345.72C2253.99 1350.56 2244.64 1352.98 2233.97 1352.98Z" fill="white"/>
<path d="M2303.5 1247.85V1218.81H2319.08V1247.85H2346.71V1262.36H2319.08V1318.14C2319.08 1324.5 2320.39 1329.13 2323.02 1332.04C2325.79 1334.94 2329.26 1336.67 2333.41 1337.22C2337.7 1337.77 2342.14 1337.77 2346.71 1337.22V1350.7C2341.3 1351.94 2335.97 1352.29 2330.71 1351.73C2325.59 1351.18 2320.95 1349.66 2316.79 1347.17C2312.78 1344.55 2309.52 1340.88 2307.03 1336.18C2304.67 1331.48 2303.5 1325.47 2303.5 1318.14V1262.36H2287.92V1247.85H2303.5Z" fill="white"/>
<path d="M2406.44 1352.98C2396.61 1352.98 2387.82 1350.84 2380.06 1346.55C2372.31 1342.27 2366.21 1336.18 2361.78 1328.3C2357.35 1320.28 2355.13 1310.81 2355.13 1299.89C2355.13 1288.83 2357.35 1279.3 2361.78 1271.28C2366.35 1263.26 2372.51 1257.11 2380.27 1252.82C2388.16 1248.54 2397.03 1246.39 2406.86 1246.39C2416.69 1246.39 2425.49 1248.54 2433.24 1252.82C2441.14 1257.11 2447.3 1263.26 2451.73 1271.28C2456.3 1279.16 2458.59 1288.56 2458.59 1299.48C2458.59 1310.54 2456.3 1320.08 2451.73 1328.1C2447.16 1336.11 2440.93 1342.27 2433.03 1346.55C2425.14 1350.84 2416.28 1352.98 2406.44 1352.98ZM2406.24 1338.26C2412.33 1338.26 2418.08 1336.94 2423.48 1334.32C2428.88 1331.55 2433.24 1327.33 2436.57 1321.67C2440.03 1315.86 2441.76 1308.53 2441.76 1299.69C2441.76 1290.7 2440.1 1283.37 2436.77 1277.71C2433.45 1272.04 2429.09 1267.89 2423.69 1265.26C2418.42 1262.5 2412.74 1261.12 2406.65 1261.12C2400.56 1261.12 2394.88 1262.5 2389.62 1265.26C2384.35 1267.89 2380.06 1272.11 2376.74 1277.91C2373.55 1283.58 2371.96 1290.84 2371.96 1299.69C2371.96 1308.67 2373.55 1316 2376.74 1321.67C2379.92 1327.33 2384.08 1331.55 2389.2 1334.32C2394.46 1336.94 2400.14 1338.26 2406.24 1338.26Z" fill="white"/>
<path d="M2475.8 1247.85H2490.13L2490.96 1262.98C2493.73 1259.25 2497.05 1256.07 2500.93 1253.44C2504.95 1250.82 2509.31 1249.02 2514.02 1248.05C2518.87 1246.95 2523.99 1246.88 2529.39 1247.85V1263.4C2523.58 1262.29 2518.31 1262.29 2513.6 1263.4C2509.03 1264.5 2505.09 1266.58 2501.76 1269.62C2498.44 1272.66 2495.88 1276.53 2494.08 1281.23C2492.28 1285.79 2491.38 1291.12 2491.38 1297.2V1351.53H2475.8V1247.85Z" fill="white"/>
<path d="M2612.77 1247.85H2628.97L2569.56 1393H2554.6L2572.26 1350.08L2530.3 1247.85H2547.33L2580.57 1331.62L2612.77 1247.85Z" fill="white"/>
<path d="M2787.47 1220.89H2708.74V1270.45H2767.94V1284.96H2708.74V1337.01H2787.47V1351.53H2692.12V1206.37H2787.47V1220.89Z" fill="white"/>
<path d="M2808.74 1202.23H2824.53V1292.84H2834.08L2875.01 1247.85H2897.03L2848 1299.69L2897.23 1351.53H2875.01L2834.08 1306.32H2824.53V1351.53H2808.74V1202.23Z" fill="white"/>
<path d="M2952.82 1352.98C2942.99 1352.98 2934.19 1350.84 2926.44 1346.55C2918.68 1342.27 2912.59 1336.18 2908.16 1328.3C2903.72 1320.28 2901.51 1310.81 2901.51 1299.89C2901.51 1288.83 2903.72 1279.3 2908.16 1271.28C2912.73 1263.26 2918.89 1257.11 2926.65 1252.82C2934.54 1248.54 2943.4 1246.39 2953.24 1246.39C2963.07 1246.39 2971.86 1248.54 2979.62 1252.82C2987.51 1257.11 2993.68 1263.26 2998.11 1271.28C3002.68 1279.16 3004.96 1288.56 3004.96 1299.48C3004.96 1310.54 3002.68 1320.08 2998.11 1328.1C2993.54 1336.11 2987.3 1342.27 2979.41 1346.55C2971.52 1350.84 2962.65 1352.98 2952.82 1352.98ZM2952.61 1338.26C2958.71 1338.26 2964.45 1336.94 2969.85 1334.32C2975.26 1331.55 2979.62 1327.33 2982.94 1321.67C2986.4 1315.86 2988.14 1308.53 2988.14 1299.69C2988.14 1290.7 2986.47 1283.37 2983.15 1277.71C2979.83 1272.04 2975.46 1267.89 2970.06 1265.26C2964.8 1262.5 2959.12 1261.12 2953.03 1261.12C2946.93 1261.12 2941.26 1262.5 2935.99 1265.26C2930.73 1267.89 2926.44 1272.11 2923.11 1277.91C2919.93 1283.58 2918.34 1290.84 2918.34 1299.69C2918.34 1308.67 2919.93 1316 2923.11 1321.67C2926.3 1327.33 2930.45 1331.55 2935.58 1334.32C2940.84 1336.94 2946.52 1338.26 2952.61 1338.26Z" fill="white"/>
<path d="M3022.17 1247.85H3036.51L3037.34 1262.57C3040.66 1257.45 3045.02 1253.51 3050.42 1250.75C3055.83 1247.85 3062.13 1246.39 3069.33 1246.39C3077.22 1246.39 3084.15 1248.12 3090.1 1251.58C3096.06 1254.9 3100.7 1259.94 3104.02 1266.72C3107.35 1273.35 3109.01 1281.71 3109.01 1291.81V1351.53H3093.43V1293.67C3093.43 1282.89 3091.07 1274.73 3086.36 1269.2C3081.79 1263.54 3075.15 1260.7 3066.42 1260.7C3057.42 1260.7 3050.36 1263.67 3045.23 1269.62C3040.25 1275.56 3037.75 1284.34 3037.75 1295.95V1351.53H3022.17V1247.85Z" fill="white"/>
<path d="M3175.79 1352.98C3165.96 1352.98 3157.16 1350.84 3149.41 1346.55C3141.65 1342.27 3135.56 1336.18 3131.13 1328.3C3126.69 1320.28 3124.48 1310.81 3124.48 1299.89C3124.48 1288.83 3126.69 1279.3 3131.13 1271.28C3135.7 1263.26 3141.86 1257.11 3149.62 1252.82C3157.51 1248.54 3166.37 1246.39 3176.21 1246.39C3186.04 1246.39 3194.83 1248.54 3202.59 1252.82C3210.48 1257.11 3216.65 1263.26 3221.08 1271.28C3225.65 1279.16 3227.93 1288.56 3227.93 1299.48C3227.93 1310.54 3225.65 1320.08 3221.08 1328.1C3216.51 1336.11 3210.27 1342.27 3202.38 1346.55C3194.49 1350.84 3185.62 1352.98 3175.79 1352.98ZM3175.58 1338.26C3181.68 1338.26 3187.42 1336.94 3192.82 1334.32C3198.23 1331.55 3202.59 1327.33 3205.91 1321.67C3209.37 1315.86 3211.11 1308.53 3211.11 1299.69C3211.11 1290.7 3209.44 1283.37 3206.12 1277.71C3202.8 1272.04 3198.43 1267.89 3193.03 1265.26C3187.77 1262.5 3182.09 1261.12 3176 1261.12C3169.9 1261.12 3164.23 1262.5 3158.96 1265.26C3153.7 1267.89 3149.41 1272.11 3146.08 1277.91C3142.9 1283.58 3141.31 1290.84 3141.31 1299.69C3141.31 1308.67 3142.9 1316 3146.08 1321.67C3149.27 1327.33 3153.42 1331.55 3158.55 1334.32C3163.81 1336.94 3169.49 1338.26 3175.58 1338.26Z" fill="white"/>
<path d="M3245.14 1247.85H3259.48L3260.51 1262.78C3263.56 1257.8 3267.65 1253.86 3272.77 1250.96C3278.03 1247.91 3284.27 1246.39 3291.47 1246.39C3298.81 1246.39 3305.46 1248.19 3311.41 1251.79C3317.5 1255.24 3322.21 1260.43 3325.54 1267.34C3328.72 1260.29 3333.57 1255.03 3340.08 1251.58C3346.59 1248.12 3353.79 1246.39 3361.68 1246.39C3369.44 1246.39 3376.29 1248.12 3382.25 1251.58C3388.2 1254.9 3392.84 1259.94 3396.17 1266.72C3399.49 1273.35 3401.15 1281.71 3401.15 1291.81V1351.53H3385.57V1293.67C3385.57 1282.89 3383.22 1274.73 3378.51 1269.2C3373.94 1263.54 3367.36 1260.7 3358.78 1260.7C3350.05 1260.7 3343.13 1263.74 3338 1269.83C3332.88 1275.77 3330.32 1284.62 3330.32 1296.37V1351.53H3314.73V1293.67C3314.73 1282.89 3312.52 1274.73 3308.09 1269.2C3303.66 1263.54 3297.15 1260.7 3288.56 1260.7C3279.83 1260.7 3272.98 1263.74 3267.99 1269.83C3263.15 1275.77 3260.72 1284.62 3260.72 1296.37V1351.53H3245.14V1247.85Z" fill="white"/>
<path d="M3426.18 1247.85H3441.56V1351.53H3426.18V1247.85ZM3434.08 1227.11C3430.89 1227.11 3428.26 1226.07 3426.18 1224C3424.11 1221.92 3423.07 1219.37 3423.07 1216.33C3423.07 1213.15 3424.11 1210.52 3426.18 1208.45C3428.26 1206.37 3430.89 1205.34 3434.08 1205.34C3436.99 1205.34 3439.48 1206.37 3441.56 1208.45C3443.77 1210.52 3444.88 1213.15 3444.88 1216.33C3444.88 1219.37 3443.77 1221.92 3441.56 1224C3439.48 1226.07 3436.99 1227.11 3434.08 1227.11Z" fill="white"/>
<path d="M3519.89 1206.37H3536.51V1270.45H3543.57L3603.61 1206.37H3625.01L3558.12 1277.71L3625.63 1351.53H3603.61L3543.37 1284.96H3536.51V1351.53H3519.89V1206.37Z" fill="white"/>
<path d="M3636.1 1247.85H3650.44L3651.27 1262.98C3654.04 1259.25 3657.36 1256.07 3661.24 1253.44C3665.26 1250.82 3669.62 1249.02 3674.33 1248.05C3679.18 1246.95 3684.3 1246.88 3689.7 1247.85V1263.4C3683.88 1262.29 3678.62 1262.29 3673.91 1263.4C3669.34 1264.5 3665.4 1266.58 3662.07 1269.62C3658.75 1272.66 3656.19 1276.53 3654.39 1281.23C3652.59 1285.79 3651.69 1291.12 3651.69 1297.2V1351.53H3636.1V1247.85Z" fill="white"/>
<path d="M3746.28 1352.98C3736.58 1352.98 3727.93 1350.63 3720.31 1345.93C3712.83 1341.23 3706.95 1334.8 3702.65 1326.64C3698.36 1318.49 3696.21 1309.16 3696.21 1298.65C3696.21 1288.56 3698.36 1279.57 3702.65 1271.69C3706.95 1263.81 3712.83 1257.66 3720.31 1253.24C3727.79 1248.67 3736.31 1246.39 3745.86 1246.39C3755.28 1246.39 3763.66 1248.47 3771 1252.61C3778.48 1256.76 3784.3 1262.5 3788.45 1269.83C3792.6 1277.15 3794.54 1285.52 3794.27 1294.92C3794.27 1296.44 3794.2 1298.03 3794.06 1299.69C3793.92 1301.35 3793.78 1303.14 3793.64 1305.08H3713.25C3713.53 1311.58 3715.12 1317.31 3718.03 1322.29C3720.93 1327.27 3724.74 1331.21 3729.45 1334.11C3734.3 1336.87 3739.77 1338.26 3745.86 1338.26C3753.9 1338.26 3760.68 1336.74 3766.22 1333.69C3771.9 1330.65 3775.99 1326.3 3778.48 1320.63L3791.98 1326.02C3787.83 1334.73 3781.8 1341.44 3773.91 1346.14C3766.01 1350.7 3756.8 1352.98 3746.28 1352.98ZM3777.23 1291.6C3777.37 1285.65 3776.05 1280.4 3773.28 1275.84C3770.65 1271.28 3766.91 1267.68 3762.07 1265.06C3757.22 1262.43 3751.61 1261.12 3745.24 1261.12C3739.7 1261.12 3734.65 1262.43 3730.08 1265.06C3725.51 1267.68 3721.7 1271.35 3718.65 1276.05C3715.74 1280.61 3714.01 1285.79 3713.46 1291.6H3777.23Z" fill="white"/>
<path d="M3876.63 1351.53L3875.38 1332.86C3872.47 1339.22 3868.18 1344.2 3862.5 1347.79C3856.82 1351.25 3849.62 1352.98 3840.89 1352.98C3833.42 1352.98 3827.04 1351.8 3821.78 1349.45C3816.52 1347.1 3812.43 1343.79 3809.53 1339.5C3806.76 1335.08 3805.37 1329.89 3805.37 1323.95C3805.37 1315.24 3808.63 1308.12 3815.13 1302.59C3821.64 1296.92 3831.06 1293.47 3843.39 1292.22L3875.38 1288.7V1280.4C3875.38 1274.6 3873.23 1269.96 3868.94 1266.51C3864.65 1262.91 3858.83 1261.12 3851.49 1261.12C3844.29 1261.12 3838.26 1262.78 3833.42 1266.09C3828.71 1269.41 3825.45 1274.18 3823.65 1280.4L3809.53 1275.42C3812.3 1266.3 3817.35 1259.18 3824.69 1254.07C3832.17 1248.95 3841.24 1246.39 3851.9 1246.39C3864.23 1246.39 3873.79 1249.57 3880.57 1255.93C3887.5 1262.15 3890.96 1270.66 3890.96 1281.44V1351.53H3876.63ZM3875.38 1301.97L3843.18 1305.7C3836.25 1306.53 3830.99 1308.46 3827.39 1311.51C3823.79 1314.41 3821.99 1318.28 3821.99 1323.12C3821.99 1327.96 3823.72 1331.83 3827.18 1334.73C3830.78 1337.63 3835.91 1339.09 3842.56 1339.09C3850.17 1339.09 3856.41 1337.56 3861.25 1334.52C3866.1 1331.48 3869.63 1327.4 3871.85 1322.29C3874.2 1317.04 3875.38 1311.37 3875.38 1305.29V1301.97Z" fill="white"/>
<path d="M3919.69 1247.85V1218.81H3935.27V1247.85H3962.9V1262.36H3935.27V1318.14C3935.27 1324.5 3936.59 1329.13 3939.22 1332.04C3941.99 1334.94 3945.45 1336.67 3949.61 1337.22C3953.9 1337.77 3958.33 1337.77 3962.9 1337.22V1350.7C3957.5 1351.94 3952.17 1352.29 3946.91 1351.73C3941.78 1351.18 3937.14 1349.66 3932.99 1347.17C3928.97 1344.55 3925.72 1340.88 3923.23 1336.18C3920.87 1331.48 3919.69 1325.47 3919.69 1318.14V1262.36H3904.11V1247.85H3919.69Z" fill="white"/>
<path d="M3980.89 1247.85H3996.26V1351.53H3980.89V1247.85ZM3988.78 1227.11C3985.59 1227.11 3982.96 1226.07 3980.89 1224C3978.81 1221.92 3977.77 1219.37 3977.77 1216.33C3977.77 1213.15 3978.81 1210.52 3980.89 1208.45C3982.96 1206.37 3985.59 1205.34 3988.78 1205.34C3991.69 1205.34 3994.18 1206.37 3996.26 1208.45C3998.47 1210.52 3999.58 1213.15 3999.58 1216.33C3999.58 1219.37 3998.47 1221.92 3996.26 1224C3994.18 1226.07 3991.69 1227.11 3988.78 1227.11Z" fill="white"/>
<path d="M4028.63 1235.61C4028.63 1228.01 4029.87 1221.58 4032.37 1216.33C4034.86 1211.07 4038.81 1207.27 4044.21 1204.92C4049.75 1202.43 4057.09 1201.53 4066.23 1202.23V1216.12C4057.92 1215.43 4052.17 1216.81 4048.98 1220.27C4045.8 1223.58 4044.21 1228.7 4044.21 1235.61V1247.85H4067.06V1262.36H4044.21V1351.53H4028.63V1262.36H4014.08V1247.85H4028.63V1235.61Z" fill="white"/>
<path d="M4244.78 1206.37V1351.53H4227.95L4150.26 1232.92V1351.53H4133.64V1206.37H4150.46L4228.16 1324.78V1206.37H4244.78Z" fill="white"/>
<path d="M4349.91 1247.85H4364.24V1332.45C4364.24 1345.17 4361.4 1356.02 4355.73 1365.01C4350.05 1374.13 4341.81 1381.04 4331 1385.74C4320.2 1390.58 4307.05 1393 4291.53 1393L4289.04 1378.69C4308.57 1378.42 4323.39 1374.34 4333.5 1366.46C4343.61 1358.72 4348.66 1347.38 4348.66 1332.45V1330.17L4350.32 1330.58C4347.14 1336.67 4342.36 1341.92 4335.99 1346.34C4329.62 1350.63 4321.38 1352.84 4311.27 1352.98C4301.71 1352.98 4293.33 1350.84 4286.13 1346.55C4279.07 1342.13 4273.53 1335.91 4269.51 1327.89C4265.64 1319.87 4263.7 1310.47 4263.7 1299.69C4263.7 1288.9 4265.64 1279.57 4269.51 1271.69C4273.53 1263.67 4279.07 1257.45 4286.13 1253.03C4293.33 1248.61 4301.71 1246.39 4311.27 1246.39C4317.5 1246.39 4323.04 1247.36 4327.89 1249.3C4332.74 1251.09 4336.89 1253.58 4340.35 1256.76C4343.82 1259.8 4346.65 1263.26 4348.87 1267.13L4349.91 1247.85ZM4280.52 1299.69C4280.52 1311.58 4283.57 1321.04 4289.66 1328.1C4295.9 1335.01 4304.28 1338.46 4314.8 1338.46C4321.17 1338.46 4326.92 1336.94 4332.04 1333.9C4337.17 1330.86 4341.18 1326.44 4344.09 1320.63C4347.14 1314.82 4348.66 1307.84 4348.66 1299.69C4348.66 1291.53 4347.14 1284.62 4344.09 1278.95C4341.18 1273.14 4337.17 1268.72 4332.04 1265.68C4326.92 1262.5 4321.17 1260.91 4314.8 1260.91C4304.41 1260.91 4296.1 1264.43 4289.87 1271.48C4283.64 1278.54 4280.52 1287.94 4280.52 1299.69Z" fill="white"/>
<path d="M4452.83 1351.53L4451.59 1332.86C4448.68 1339.22 4444.38 1344.2 4438.71 1347.79C4433.03 1351.25 4425.83 1352.98 4417.1 1352.98C4409.62 1352.98 4403.25 1351.8 4397.99 1349.45C4392.73 1347.1 4388.64 1343.79 4385.73 1339.5C4382.96 1335.08 4381.58 1329.89 4381.58 1323.95C4381.58 1315.24 4384.83 1308.12 4391.34 1302.59C4397.85 1296.92 4407.27 1293.47 4419.59 1292.22L4451.59 1288.7V1280.4C4451.59 1274.6 4449.44 1269.96 4445.15 1266.51C4440.85 1262.91 4435.04 1261.12 4427.7 1261.12C4420.49 1261.12 4414.47 1262.78 4409.62 1266.09C4404.91 1269.41 4401.66 1274.18 4399.86 1280.4L4385.73 1275.42C4388.5 1266.3 4393.56 1259.18 4400.9 1254.07C4408.38 1248.95 4417.45 1246.39 4428.11 1246.39C4440.44 1246.39 4449.99 1249.57 4456.78 1255.93C4463.7 1262.15 4467.17 1270.66 4467.17 1281.44V1351.53H4452.83ZM4451.59 1301.97L4419.39 1305.7C4412.46 1306.53 4407.2 1308.46 4403.6 1311.51C4400 1314.41 4398.2 1318.28 4398.2 1323.12C4398.2 1327.96 4399.93 1331.83 4403.39 1334.73C4406.99 1337.63 4412.12 1339.09 4418.76 1339.09C4426.38 1339.09 4432.61 1337.56 4437.46 1334.52C4442.31 1331.48 4445.84 1327.4 4448.05 1322.29C4450.41 1317.04 4451.59 1311.37 4451.59 1305.29V1301.97Z" fill="white"/>
<path d="M4489.25 1247.85H4503.59L4504.42 1262.57C4507.74 1257.45 4512.1 1253.51 4517.51 1250.75C4522.91 1247.85 4529.21 1246.39 4536.41 1246.39C4544.3 1246.39 4551.23 1248.12 4557.18 1251.58C4563.14 1254.9 4567.78 1259.94 4571.1 1266.72C4574.43 1273.35 4576.09 1281.71 4576.09 1291.81V1351.53H4560.51V1293.67C4560.51 1282.89 4558.15 1274.73 4553.44 1269.2C4548.87 1263.54 4542.23 1260.7 4533.5 1260.7C4524.5 1260.7 4517.44 1263.67 4512.31 1269.62C4507.33 1275.56 4504.83 1284.34 4504.83 1295.95V1351.53H4489.25V1247.85Z" fill="white"/>
<path d="M4600.28 1348.83V1247.85H4615.86V1349.04C4615.86 1358.02 4614.06 1365.77 4610.46 1372.26C4607 1378.76 4602.29 1383.74 4596.34 1387.19C4590.52 1390.79 4584.15 1392.72 4577.22 1393L4574.94 1378.69C4582.97 1378 4589.2 1375.03 4593.64 1369.78C4598.07 1364.66 4600.28 1357.68 4600.28 1348.83ZM4608.18 1227.11C4611.22 1227.11 4613.79 1226.07 4615.86 1224C4617.94 1221.92 4618.98 1219.37 4618.98 1216.33C4618.98 1213.15 4617.94 1210.52 4615.86 1208.45C4613.79 1206.37 4611.22 1205.34 4608.18 1205.34C4605.13 1205.34 4602.5 1206.37 4600.28 1208.45C4598.21 1210.52 4597.17 1213.15 4597.17 1216.33C4597.17 1219.37 4598.21 1221.92 4600.28 1224C4602.5 1226.07 4605.13 1227.11 4608.18 1227.11Z" fill="white"/>
<path d="M4726.79 1351.53H4712.67L4711.63 1336.6C4708.44 1341.85 4704.15 1345.93 4698.75 1348.83C4693.35 1351.6 4687.04 1352.98 4679.84 1352.98C4671.81 1352.98 4664.82 1351.32 4658.86 1348C4652.91 1344.68 4648.27 1339.71 4644.94 1333.07C4641.76 1326.44 4640.16 1318.07 4640.16 1307.98V1247.85H4655.54V1306.32C4655.54 1316.97 4657.82 1325.05 4662.39 1330.58C4667.1 1335.97 4673.82 1338.67 4682.54 1338.67C4691.41 1338.67 4698.4 1335.84 4703.53 1330.17C4708.79 1324.36 4711.42 1315.65 4711.42 1304.04V1247.85H4726.79V1351.53Z" fill="white"/>
<path d="M4750.17 1202.23H4765.96V1292.84H4775.51L4816.44 1247.85H4838.46L4789.43 1299.69L4838.66 1351.53H4816.44L4775.51 1306.32H4765.96V1351.53H4750.17V1202.23Z" fill="white"/>
<path fill-rule="evenodd" clip-rule="evenodd" d="M413.725 1662.13C413.725 1662.13 219.599 1603.71 94.0403 1400.39C-12.0345 1228.63 -60.1765 941.018 123.491 698.771C486.405 220.109 509.264 0 509.264 0C509.264 0 1181.82 559.587 813.748 1055.99C567.473 1388.14 731.984 1692.54 731.984 1692.54C731.984 1692.54 338.197 1317.26 505.877 1031.29C668.525 753.906 544.89 588.089 544.89 588.089C544.89 588.089 336.982 781.426 261.245 1031.29C185.508 1281.16 413.725 1662.13 413.725 1662.13Z" fill="#0C3555"/>
<path d="M1214.16 1330.62C1363.33 942.312 1121.42 673.157 1121.42 673.157C1121.42 673.157 1117.78 966.532 874.279 1181.56C735.025 1304.53 692.416 1453.44 799.186 1542.81C934.163 1655.79 1148.58 1501.32 1214.16 1330.62Z" fill="#265780"/>
</svg>
